<?xml version="1.0" encoding="utf-8"?>
<!-- Generator: Adobe Illustrator 25.3.1, SVG Export Plug-In . SVG Version: 6.00 Build 0)  -->
<svg version="1.1" id="Layer_1" xmlns="http://www.w3.org/2000/svg" xmlns:xlink="http://www.w3.org/1999/xlink" x="0px" y="0px"
	 viewBox="0 0 55.3 55.3" style="enable-background:new 0 0 55.3 55.3;" xml:space="preserve">
<style type="text/css">
	.st0{fill:#FFFFFF;}
</style>
<path class="st0" d="M53.8,12.7L28.9,0.3C28-0.1,27-0.1,26.2,0.4c-0.8,0.5-1.3,1.4-1.3,2.4v11.3L18,21L2.1,25c0,0,0,0,0,0
	c-0.3,0.1-0.5,0.2-0.7,0.3c0,0,0,0-0.1,0c-0.1,0.1-0.2,0.1-0.3,0.2c0,0,0,0,0,0c-0.1,0.1-0.2,0.1-0.2,0.2c0,0,0,0,0,0.1
	c-0.1,0.1-0.2,0.2-0.2,0.3c0,0,0,0,0,0.1c-0.1,0.1-0.1,0.2-0.2,0.3c0,0,0,0,0,0c-0.1,0.1-0.1,0.2-0.1,0.4c0,0,0,0,0,0.1
	c0,0.1-0.1,0.2-0.1,0.4c0,0,0,0,0,0c0,0,0,0,0,0c0,0.1,0,0.2,0,0.3v12.5c0,1,0.6,2,1.5,2.5L26.4,55c0,0,0,0,0,0c0,0,0,0,0,0
	c0.1,0.1,0.2,0.1,0.3,0.1c0,0,0,0,0,0c0,0,0,0,0.1,0c0.1,0,0.2,0,0.3,0.1c0,0,0.1,0,0.1,0c0.1,0,0.2,0,0.4,0c0,0,0,0,0,0
	c0.1,0,0.2,0,0.3,0c0,0,0.1,0,0.1,0c0.1,0,0.2,0,0.2,0c0,0,0.1,0,0.1,0c0.1,0,0.1,0,0.2-0.1c0,0,0.1,0,0.1-0.1C28.9,55,29,55,29,55
	c0,0,0.1-0.1,0.1-0.1c0.1,0,0.1-0.1,0.2-0.1c0,0,0.1-0.1,0.1-0.1c0,0,0.1-0.1,0.1-0.1c0,0,0.1-0.1,0.1-0.1c0-0.1,0.1-0.1,0.1-0.2
	c0,0,0.1-0.1,0.1-0.1c0,0,0,0,0,0l9.4-14l4.6-1.2l7.4,3.7c0.4,0.2,0.8,0.3,1.2,0.3c0.5,0,1-0.1,1.5-0.4c0.8-0.5,1.3-1.4,1.3-2.4
	V27.7V15.2C55.3,14.2,54.7,13.2,53.8,12.7z M30.4,7.2l19.4,9.7v6.3l-19.4-9.7V7.2z M24.9,48.1L5.5,38.4v-6.3l19.4,9.7V48.1z
	 M28,37.2l-17.3-8.6l8.4-2.1l17.3,8.6L28,37.2z M43.7,32.6L24,22.8l4.2-4.2l19.7,9.8L43.7,32.6z"/>
</svg>
